<?xml version="1.0" encoding="UTF-8" standalone="no"?>
<!DOCTYPE svg PUBLIC "-//W3C//DTD SVG 1.1//EN"
 "http://www.w3.org/Graphics/SVG/1.1/DTD/svg11.dtd">
<!-- Generated by graphviz version 2.43.0 (0)
 -->
<!-- Title: application_state_diagram Pages: 1 -->
<svg width="599pt" height="264pt"
 viewBox="0.00 0.00 598.81 264.00" xmlns="http://www.w3.org/2000/svg" xmlns:xlink="http://www.w3.org/1999/xlink">
<g id="graph0" class="graph" transform="scale(1 1) rotate(0) translate(4 260)">
<title>application_state_diagram</title>
<polygon fill="white" stroke="transparent" points="-4,4 -4,-260 594.81,-260 594.81,4 -4,4"/>
<!-- Blog -->
<g id="node1" class="node">
<title>Blog</title>
<g id="a_node1"><a xlink:href="docs/semantic.Blog.html" xlink:title="&lt;TABLE&gt;">
<polygon fill="none" stroke="black" points="341.31,-169 230.31,-169 230.31,-125 341.31,-125 341.31,-169"/>
<polygon fill="#dddddd" stroke="transparent" points="231.81,-126 231.81,-168 340.81,-168 340.81,-126 231.81,-126"/>
<polygon fill="none" stroke="black" points="231.81,-126 231.81,-168 340.81,-168 340.81,-126 231.81,-126"/>
<text text-anchor="start" x="269.81" y="-150.8" font-family="Times,serif" font-size="14.00">Blog</text>
<text text-anchor="start" x="237.81" y="-135.8" font-family="Times,serif" font-size="14.00">(BlogPosting)</text>
</a>
</g>
</g>
<!-- Blog&#45;&gt;Blog -->
<g id="edge4" class="edge">
<title>Blog&#45;&gt;Blog</title>
<g id="a_edge4"><a xlink:href="docs/unsafe.post.html" xlink:title="post (unsafe)">
<path fill="none" stroke="black" d="M341.58,-155.18C351.98,-154.17 359.31,-151.45 359.31,-147 359.31,-144.22 356.45,-142.11 351.76,-140.68"/>
<polygon fill="black" stroke="black" points="352.04,-137.17 341.58,-138.82 350.79,-144.06 352.04,-137.17"/>
</a>
</g>
<g id="a_edge4&#45;label"><a xlink:href="docs/unsafe.post.html" xlink:title="post (unsafe)">
<text text-anchor="middle" x="406.31" y="-143.3" font-family="Times,serif" font-size="14.00">post (unsafe)</text>
</a>
</g>
</g>
<!-- BlogPosting -->
<g id="node2" class="node">
<title>BlogPosting</title>
<g id="a_node2"><a xlink:href="docs/semantic.BlogPosting.html" xlink:title="&lt;TABLE&gt;">
<polygon fill="none" stroke="black" points="158.81,-74 44.81,-74 44.81,0 158.81,0 158.81,-74"/>
<polygon fill="#dddddd" stroke="transparent" points="45.81,-1 45.81,-73 157.81,-73 157.81,-1 45.81,-1"/>
<polygon fill="none" stroke="black" points="45.81,-1 45.81,-73 157.81,-73 157.81,-1 45.81,-1"/>
<text text-anchor="start" x="58.81" y="-55.8" font-family="Times,serif" font-size="14.00">BlogPosting</text>
<text text-anchor="start" x="89.31" y="-40.8" font-family="Times,serif" font-size="14.00">(id)</text>
<text text-anchor="start" x="55.31" y="-25.8" font-family="Times,serif" font-size="14.00">(articleBody)</text>
<text text-anchor="start" x="51.81" y="-10.8" font-family="Times,serif" font-size="14.00">(dateCreated)</text>
</a>
</g>
</g>
<!-- Blog&#45;&gt;BlogPosting -->
<g id="edge3" class="edge">
<title>Blog&#45;&gt;BlogPosting</title>
<g id="a_edge3"><a xlink:href="docs/safe.blogPosting.html" xlink:title="blogPosting, item (safe)">
<path fill="none" stroke="black" d="M230.11,-146.51C156.91,-145.85 34.29,-139.72 5.81,-107 -10.28,-88.51 9.53,-72.26 35.25,-60.18"/>
<polygon fill="black" stroke="black" points="36.8,-63.32 44.54,-56.08 33.98,-56.91 36.8,-63.32"/>
</a>
</g>
<g id="a_edge3&#45;label"><a xlink:href="docs/safe.blogPosting.html" xlink:title="blogPosting, item (safe)">
<text text-anchor="middle" x="90.81" y="-95.8" font-family="Times,serif" font-size="14.00">blogPosting, item (safe)</text>
</a>
</g>
</g>
<!-- About -->
<g id="node4" class="node">
<title>About</title>
<g id="a_node4"><a xlink:href="docs/semantic.About.html" xlink:title="About">
<polygon fill="lightgrey" stroke="black" stroke-width="2" points="457.31,-55 398.31,-55 398.31,-19 457.31,-19 457.31,-55"/>
<text text-anchor="middle" x="427.81" y="-33.3" font-family="Times,serif" font-size="14.00">About</text>
</a>
</g>
</g>
<!-- Blog&#45;&gt;About -->
<g id="edge5" class="edge">
<title>Blog&#45;&gt;About</title>
<g id="a_edge5"><a xlink:href="docs/safe.about.html" xlink:title="about (safe)">
<path fill="none" stroke="black" d="M324.7,-124.8C333.82,-119.34 343.35,-113.24 351.81,-107 370.08,-93.52 388.99,-76.37 403.38,-62.54"/>
<polygon fill="black" stroke="black" points="406.15,-64.72 410.87,-55.24 401.27,-59.71 406.15,-64.72"/>
</a>
</g>
<g id="a_edge5&#45;label"><a xlink:href="docs/safe.about.html" xlink:title="about (safe)">
<text text-anchor="middle" x="412.31" y="-95.8" font-family="Times,serif" font-size="14.00">about (safe)</text>
</a>
</g>
</g>
<!-- BlogPosting&#45;&gt;Blog -->
<g id="edge6" class="edge">
<title>BlogPosting&#45;&gt;Blog</title>
<g id="a_edge6"><a xlink:href="docs/safe.blog.html" xlink:title="blog, collection (safe)">
<path fill="none" stroke="black" d="M151.76,-74.05C159.84,-80 168.08,-86.13 175.81,-92 184.38,-98.51 185.56,-101.5 194.81,-107 203.03,-111.89 211.98,-116.5 220.95,-120.72"/>
<polygon fill="black" stroke="black" points="219.73,-124 230.28,-124.96 222.63,-117.63 219.73,-124"/>
</a>
</g>
<g id="a_edge6&#45;label"><a xlink:href="docs/safe.blog.html" xlink:title="blog, collection (safe)">
<text text-anchor="middle" x="271.31" y="-95.8" font-family="Times,serif" font-size="14.00">blog, collection (safe)</text>
</a>
</g>
</g>
<!-- Index -->
<g id="node3" class="node">
<title>Index</title>
<g id="a_node3"><a xlink:href="docs/semantic.Index.html" xlink:title="Index">
<polygon fill="lightgrey" stroke="black" stroke-width="2" points="313.81,-256 257.81,-256 257.81,-220 313.81,-220 313.81,-256"/>
<text text-anchor="middle" x="285.81" y="-234.3" font-family="Times,serif" font-size="14.00">Index</text>
</a>
</g>
</g>
<!-- Index&#45;&gt;Blog -->
<g id="edge1" class="edge">
<title>Index&#45;&gt;Blog</title>
<g id="a_edge1"><a xlink:href="docs/safe.start.html" xlink:title="start (safe)">
<path fill="none" stroke="black" d="M285.81,-219.84C285.81,-208.44 285.81,-193.13 285.81,-179.58"/>
<polygon fill="black" stroke="black" points="289.31,-179.19 285.81,-169.19 282.31,-179.19 289.31,-179.19"/>
</a>
</g>
<g id="a_edge1&#45;label"><a xlink:href="docs/safe.start.html" xlink:title="start (safe)">
<text text-anchor="middle" x="325.31" y="-190.8" font-family="Times,serif" font-size="14.00">start (safe)</text>
</a>
</g>
</g>
<!-- About&#45;&gt;Blog -->
<g id="edge2" class="edge">
<title>About&#45;&gt;Blog</title>
<g id="a_edge2"><a xlink:href="docs/safe.backToBlog.html" xlink:title="backToBlog (safe)">
<path fill="none" stroke="black" d="M445.57,-55.15C458.72,-69.94 472.35,-91.33 459.81,-107 446.17,-124.04 394.76,-134.14 351.33,-139.78"/>
<polygon fill="black" stroke="black" points="350.84,-136.31 341.35,-141.01 351.7,-143.26 350.84,-136.31"/>
</a>
</g>
<g id="a_edge2&#45;label"><a xlink:href="docs/safe.backToBlog.html" xlink:title="backToBlog (safe)">
<text text-anchor="middle" x="527.31" y="-95.8" font-family="Times,serif" font-size="14.00">backToBlog (safe)</text>
</a>
</g>
</g>
</g>
</svg>
