<?xml version="1.0" encoding="UTF-8" standalone="no"?>
<!DOCTYPE svg PUBLIC "-//W3C//DTD SVG 1.1//EN"
 "http://www.w3.org/Graphics/SVG/1.1/DTD/svg11.dtd">
<!-- Generated by graphviz version 2.43.0 (0)
 -->
<!-- Title: application_state_diagram Pages: 1 -->
<svg width="1671pt" height="381pt"
 viewBox="0.00 0.00 1671.00 381.00" xmlns="http://www.w3.org/2000/svg" xmlns:xlink="http://www.w3.org/1999/xlink">
<g id="graph0" class="graph" transform="scale(1 1) rotate(0) translate(4 377)">
<title>application_state_diagram</title>
<polygon fill="white" stroke="transparent" points="-4,4 -4,-377 1667,-377 1667,4 -4,4"/>
<!-- todoList -->
<g id="node1" class="node">
<title>todoList</title>
<g id="a_node1"><a xlink:href="docs/semantic.todoList.html" xlink:title="&lt;TABLE&gt;">
<polygon fill="none" stroke="black" points="842,-373 743,-373 743,-299 842,-299 842,-373"/>
<polygon fill="#dddddd" stroke="transparent" points="744.5,-300 744.5,-372 841.5,-372 841.5,-300 744.5,-300"/>
<polygon fill="none" stroke="black" points="744.5,-300 744.5,-372 841.5,-372 841.5,-300 744.5,-300"/>
<text text-anchor="start" x="763.5" y="-354.8" font-family="Times,serif" font-size="14.00">todoList</text>
<text text-anchor="start" x="780.5" y="-339.8" font-family="Times,serif" font-size="14.00">(id)</text>
<text text-anchor="start" x="773" y="-324.8" font-family="Times,serif" font-size="14.00">(title)</text>
<text text-anchor="start" x="750.5" y="-309.8" font-family="Times,serif" font-size="14.00">(completed)</text>
</a>
</g>
</g>
<!-- todoList&#45;&gt;todoList -->
<g id="edge7" class="edge">
<title>todoList&#45;&gt;todoList</title>
<g id="a_edge7"><a xlink:href="docs/safe.listAll.html" xlink:title="listAll (safe), listActive (safe), listCompleted (safe), goFirst (safe), goNext (safe), goPrevious (safe), goLast (safe)">
<path fill="none" stroke="black" d="M842.25,-347.22C852.57,-346.04 860,-342.3 860,-336 860,-331.97 856.95,-328.98 852.05,-327.05"/>
<polygon fill="black" stroke="black" points="852.78,-323.62 842.25,-324.78 851.2,-330.44 852.78,-323.62"/>
</a>
</g>
<g id="a_edge7&#45;label"><a xlink:href="docs/safe.listAll.html" xlink:title="listAll (safe), listActive (safe), listCompleted (safe), goFirst (safe), goNext (safe), goPrevious (safe), goLast (safe)">
<text text-anchor="middle" x="1261.5" y="-332.3" font-family="Times,serif" font-size="14.00">listAll (safe), listActive (safe), listCompleted (safe), goFirst (safe), goNext (safe), goPrevious (safe), goLast (safe)</text>
</a>
</g>
</g>
<!-- todoItem -->
<g id="node2" class="node">
<title>todoItem</title>
<g id="a_node2"><a xlink:href="docs/semantic.todoItem.html" xlink:title="&lt;TABLE&gt;">
<polygon fill="none" stroke="black" points="99,-248 0,-248 0,-174 99,-174 99,-248"/>
<polygon fill="#dddddd" stroke="transparent" points="1.5,-175 1.5,-247 98.5,-247 98.5,-175 1.5,-175"/>
<polygon fill="none" stroke="black" points="1.5,-175 1.5,-247 98.5,-247 98.5,-175 1.5,-175"/>
<text text-anchor="start" x="17.5" y="-229.8" font-family="Times,serif" font-size="14.00">todoItem</text>
<text text-anchor="start" x="37.5" y="-214.8" font-family="Times,serif" font-size="14.00">(id)</text>
<text text-anchor="start" x="30" y="-199.8" font-family="Times,serif" font-size="14.00">(title)</text>
<text text-anchor="start" x="7.5" y="-184.8" font-family="Times,serif" font-size="14.00">(completed)</text>
</a>
</g>
</g>
<!-- todoList&#45;&gt;todoItem -->
<g id="edge6" class="edge">
<title>todoList&#45;&gt;todoItem</title>
<g id="a_edge6"><a xlink:href="docs/safe.read.html" xlink:title="read (safe), add (unsafe)">
<path fill="none" stroke="black" d="M742.67,-335.7C640.55,-336 400.85,-330.76 207.5,-281 173.5,-272.25 137.48,-257.03 108.44,-243.11"/>
<polygon fill="black" stroke="black" points="109.79,-239.87 99.26,-238.64 106.72,-246.17 109.79,-239.87"/>
</a>
</g>
<g id="a_edge6&#45;label"><a xlink:href="docs/safe.read.html" xlink:title="read (safe), add (unsafe)">
<text text-anchor="middle" x="295" y="-269.8" font-family="Times,serif" font-size="14.00">read (safe), add (unsafe)</text>
</a>
</g>
</g>
<!-- home -->
<g id="node3" class="node">
<title>home</title>
<g id="a_node3"><a xlink:href="docs/semantic.home.html" xlink:title="home">
<polygon fill="lightgrey" stroke="black" stroke-width="2" points="1267.5,-36 1211.5,-36 1211.5,0 1267.5,0 1267.5,-36"/>
<text text-anchor="middle" x="1239.5" y="-14.3" font-family="Times,serif" font-size="14.00">home</text>
</a>
</g>
</g>
<!-- todoList&#45;&gt;home -->
<g id="edge8" class="edge">
<title>todoList&#45;&gt;home</title>
<g id="a_edge8"><a xlink:href="docs/safe.goHome.html" xlink:title="goHome (safe)">
<path fill="none" stroke="black" d="M842.27,-335.33C968.88,-335.01 1298.02,-326.5 1365.5,-248 1422.19,-182.05 1323.37,-86.49 1270.12,-42.63"/>
<polygon fill="black" stroke="black" points="1272.28,-39.87 1262.3,-36.29 1267.87,-45.31 1272.28,-39.87"/>
</a>
</g>
<g id="a_edge8&#45;label"><a xlink:href="docs/safe.goHome.html" xlink:title="goHome (safe)">
<text text-anchor="middle" x="1420.5" y="-144.8" font-family="Times,serif" font-size="14.00">goHome (safe)</text>
</a>
</g>
</g>
<!-- related -->
<g id="node4" class="node">
<title>related</title>
<g id="a_node4"><a xlink:href="docs/semantic.related.html" xlink:title="related">
<polygon fill="lightgrey" stroke="black" stroke-width="2" points="805.5,-123 737.5,-123 737.5,-87 805.5,-87 805.5,-123"/>
<text text-anchor="middle" x="771.5" y="-101.3" font-family="Times,serif" font-size="14.00">related</text>
</a>
</g>
</g>
<!-- todoList&#45;&gt;related -->
<g id="edge9" class="edge">
<title>todoList&#45;&gt;related</title>
<g id="a_edge9"><a xlink:href="docs/safe.goRelated.html" xlink:title="goRelated (safe)">
<path fill="none" stroke="black" d="M750.48,-298.8C736.95,-284.51 723.62,-266.96 716.5,-248 704.94,-217.21 705.53,-205.01 716.5,-174 722.27,-157.68 733.82,-142.41 744.84,-130.49"/>
<polygon fill="black" stroke="black" points="747.5,-132.78 751.95,-123.16 742.47,-127.9 747.5,-132.78"/>
</a>
</g>
<g id="a_edge9&#45;label"><a xlink:href="docs/safe.goRelated.html" xlink:title="goRelated (safe)">
<text text-anchor="middle" x="775" y="-207.3" font-family="Times,serif" font-size="14.00">goRelated (safe)</text>
</a>
</g>
</g>
<!-- todoItem&#45;&gt;todoList -->
<g id="edge10" class="edge">
<title>todoItem&#45;&gt;todoList</title>
<g id="a_edge10"><a xlink:href="docs/safe.listAll.html" xlink:title="listAll (safe), remove (idempotent)">
<path fill="none" stroke="black" d="M99.24,-219.48C164.42,-229.42 282.22,-247.85 382.5,-266 415.95,-272.06 424.05,-274.96 457.5,-281 553.59,-298.35 665.67,-315.87 732.77,-326.06"/>
<polygon fill="black" stroke="black" points="732.33,-329.54 742.74,-327.58 733.37,-322.62 732.33,-329.54"/>
</a>
</g>
<g id="a_edge10&#45;label"><a xlink:href="docs/safe.listAll.html" xlink:title="listAll (safe), remove (idempotent)">
<text text-anchor="middle" x="580" y="-269.8" font-family="Times,serif" font-size="14.00">listAll (safe), remove (idempotent)</text>
</a>
</g>
</g>
<!-- todoItem&#45;&gt;todoItem -->
<g id="edge11" class="edge">
<title>todoItem&#45;&gt;todoItem</title>
<g id="a_edge11"><a xlink:href="docs/idempotent.edit.html" xlink:title="edit (idempotent), markCompleted (idempotent), clearCompleted (idempotent)">
<path fill="none" stroke="black" d="M99.25,-222.22C109.57,-221.04 117,-217.3 117,-211 117,-206.97 113.95,-203.98 109.05,-202.05"/>
<polygon fill="black" stroke="black" points="109.78,-198.62 99.25,-199.78 108.2,-205.44 109.78,-198.62"/>
</a>
</g>
<g id="a_edge11&#45;label"><a xlink:href="docs/idempotent.edit.html" xlink:title="edit (idempotent), markCompleted (idempotent), clearCompleted (idempotent)">
<text text-anchor="middle" x="398.5" y="-207.3" font-family="Times,serif" font-size="14.00">edit (idempotent), markCompleted (idempotent), clearCompleted (idempotent)</text>
</a>
</g>
</g>
<!-- todoItem&#45;&gt;related -->
<g id="edge12" class="edge">
<title>todoItem&#45;&gt;related</title>
<g id="a_edge12"><a xlink:href="docs/safe.goRelated.html" xlink:title="goRelated (safe)">
<path fill="none" stroke="black" d="M99.06,-179.32C124.77,-165 157.26,-149.32 188.5,-141 290.03,-113.95 609.25,-107.76 727.16,-106.38"/>
<polygon fill="black" stroke="black" points="727.32,-109.88 737.28,-106.27 727.24,-102.88 727.32,-109.88"/>
</a>
</g>
<g id="a_edge12&#45;label"><a xlink:href="docs/safe.goRelated.html" xlink:title="goRelated (safe)">
<text text-anchor="middle" x="247" y="-144.8" font-family="Times,serif" font-size="14.00">goRelated (safe)</text>
</a>
</g>
</g>
<!-- home&#45;&gt;todoList -->
<g id="edge1" class="edge">
<title>home&#45;&gt;todoList</title>
<g id="a_edge1"><a xlink:href="docs/safe.listAll.html" xlink:title="listAll (safe)">
<path fill="none" stroke="black" d="M1267.51,-19.22C1306.05,-20.59 1376.64,-26.98 1429.5,-54 1479.32,-79.47 1498.51,-89.55 1520.5,-141 1549.67,-209.24 1494.16,-244.57 1429.5,-281 1379.95,-308.91 1001.44,-326.74 852.47,-332.74"/>
<polygon fill="black" stroke="black" points="852,-329.26 842.14,-333.16 852.28,-336.26 852,-329.26"/>
</a>
</g>
<g id="a_edge1&#45;label"><a xlink:href="docs/safe.listAll.html" xlink:title="listAll (safe)">
<text text-anchor="middle" x="1567.5" y="-144.8" font-family="Times,serif" font-size="14.00">listAll (safe)</text>
</a>
</g>
</g>
<!-- home&#45;&gt;related -->
<g id="edge2" class="edge">
<title>home&#45;&gt;related</title>
<g id="a_edge2"><a xlink:href="docs/safe.goRelated.html" xlink:title="goRelated (safe)">
<path fill="none" stroke="black" d="M1211.35,-24.11C1132.73,-38.39 910.38,-78.78 815.4,-96.03"/>
<polygon fill="black" stroke="black" points="814.75,-92.59 805.53,-97.82 816,-99.48 814.75,-92.59"/>
</a>
</g>
<g id="a_edge2&#45;label"><a xlink:href="docs/safe.goRelated.html" xlink:title="goRelated (safe)">
<text text-anchor="middle" x="1092" y="-57.8" font-family="Times,serif" font-size="14.00">goRelated (safe)</text>
</a>
</g>
</g>
<!-- related&#45;&gt;todoList -->
<g id="edge4" class="edge">
<title>related&#45;&gt;todoList</title>
<g id="a_edge4"><a xlink:href="docs/safe.listAll.html" xlink:title="listAll (safe), listActive (safe), listCompleted (safe), remove (idempotent)">
<path fill="none" stroke="black" d="M795.87,-123.15C810.99,-135.37 829.09,-153.27 837.5,-174 852.9,-211.98 837.62,-257.05 820.81,-289.83"/>
<polygon fill="black" stroke="black" points="817.68,-288.27 816.06,-298.74 823.86,-291.57 817.68,-288.27"/>
</a>
</g>
<g id="a_edge4&#45;label"><a xlink:href="docs/safe.listAll.html" xlink:title="listAll (safe), listActive (safe), listCompleted (safe), remove (idempotent)">
<text text-anchor="middle" x="1102.5" y="-207.3" font-family="Times,serif" font-size="14.00">listAll (safe), listActive (safe), listCompleted (safe), remove (idempotent)</text>
</a>
</g>
</g>
<!-- related&#45;&gt;todoItem -->
<g id="edge5" class="edge">
<title>related&#45;&gt;todoItem</title>
<g id="a_edge5"><a xlink:href="docs/safe.read.html" xlink:title="read (safe), add (unsafe), edit (idempotent)">
<path fill="none" stroke="black" d="M737.31,-107.97C670.95,-112.06 520.2,-122.65 394.5,-141 293.54,-155.74 177.45,-180.62 108.96,-196.13"/>
<polygon fill="black" stroke="black" points="108.18,-192.72 99.21,-198.35 109.73,-199.55 108.18,-192.72"/>
</a>
</g>
<g id="a_edge5&#45;label"><a xlink:href="docs/safe.read.html" xlink:title="read (safe), add (unsafe), edit (idempotent)">
<text text-anchor="middle" x="548.5" y="-144.8" font-family="Times,serif" font-size="14.00">read (safe), add (unsafe), edit (idempotent)</text>
</a>
</g>
</g>
<!-- related&#45;&gt;home -->
<g id="edge3" class="edge">
<title>related&#45;&gt;home</title>
<g id="a_edge3"><a xlink:href="docs/safe.goHome.html" xlink:title="goHome (safe)">
<path fill="none" stroke="black" d="M797.93,-86.85C816.8,-75.51 843.23,-61.4 868.5,-54 930.13,-35.94 1119.33,-24.84 1201.14,-20.77"/>
<polygon fill="black" stroke="black" points="1201.44,-24.26 1211.26,-20.27 1201.1,-17.27 1201.44,-24.26"/>
</a>
</g>
<g id="a_edge3&#45;label"><a xlink:href="docs/safe.goHome.html" xlink:title="goHome (safe)">
<text text-anchor="middle" x="920.5" y="-57.8" font-family="Times,serif" font-size="14.00">goHome (safe)</text>
</a>
</g>
</g>
</g>
</svg>
